<svg xmlns="http://www.w3.org/2000/svg" width="150" height="169" viewBox="0 0 150 169" fill="none">
  <g opacity="0.8">
    <path d="M0 37.8516C0 32.8287 3.72592 28.5853 8.70659 27.9356L88.7066 17.5007C94.6924 16.7199 100 21.3802 100 27.4167V97.2036C100 102.226 96.2741 106.47 91.2934 107.12L11.2934 117.555C5.30765 118.335 0 113.675 0 107.639V37.8516Z" fill="#FF60FA"/>
    <path d="M32.972 1.81714C17 5.02765 12.9758 19.988 11.0464 31.3556L34.3714 29.0759C21.8135 23.851 27.2298 9.30228 32.972 1.81714Z" fill="#FF60FA"/>
  </g>
  <g opacity="0.7">
    <path d="M150 130.204C150 135.227 146.274 139.47 141.293 140.12L61.2934 150.555C55.3076 151.335 50 146.675 50 140.639L50 70.8517C50 65.8289 53.7259 61.5854 58.7066 60.9357L138.707 50.5008C144.692 49.72 150 54.3803 150 60.4168L150 130.204Z" fill="#6ADDF2"/>
    <path d="M117.028 166.238C133 163.028 137.024 148.067 138.954 136.7L115.629 138.979C128.186 144.204 122.77 158.753 117.028 166.238Z" fill="#6ADDF2"/>
  </g>
  <rect x="109" y="75.0276" width="6" height="22" fill="black"/>
  <rect x="18" y="45.0276" width="6" height="22" fill="black"/>
  <rect x="128" y="71.0276" width="6" height="22" fill="black"/>
  <rect x="37" y="41.0276" width="6" height="22" fill="black"/>
</svg>