<svg xmlns="http://www.w3.org/2000/svg" width="20" height="20" viewBox="0 0 20 20" fill="none">
  <path d="M8.62938 2.95307C9.23935 1.89846 10.7604 1.89846 11.3704 2.95307L18.8428 15.8728C19.4528 16.9288 18.6906 18.2494 17.4716 18.2494H2.52823C1.30853 18.2494 0.546901 16.929 1.15701 15.8728L8.62938 2.95307Z" fill="#F5C525" stroke="#151515"/>
  <path d="M10.3327 14.584C10.3327 14.6724 10.2976 14.7572 10.2351 14.8197C10.1725 14.8822 10.0878 14.9173 9.99935 14.9173C9.91094 14.9173 9.82616 14.8822 9.76365 14.8197C9.70113 14.7572 9.66602 14.6724 9.66602 14.584C9.66602 14.4956 9.70113 14.4108 9.76365 14.3483C9.82616 14.2858 9.91094 14.2507 9.99935 14.2507C10.0878 14.2507 10.1725 14.2858 10.2351 14.3483L10.5886 13.9947L10.2351 14.3483C10.2976 14.4108 10.3327 14.4956 10.3327 14.584ZM10.0877 7.6206C10.1112 7.64404 10.1243 7.67583 10.1243 7.70898V11.459C10.1243 11.4921 10.1112 11.5239 10.0877 11.5474C10.0643 11.5708 10.0325 11.584 9.99935 11.584C9.9662 11.584 9.9344 11.5708 9.91096 11.5474C9.88752 11.5239 9.87435 11.4921 9.87435 11.459V7.70898C9.87435 7.67583 9.88752 7.64404 9.91096 7.6206C9.9344 7.59715 9.9662 7.58398 9.99935 7.58398C10.0325 7.58398 10.0643 7.59715 10.0877 7.6206Z" fill="#151515" stroke="#151515"/>
</svg>