<svg xmlns="http://www.w3.org/2000/svg" width="16" height="18" viewBox="0 0 16 18" fill="none">
  <path d="M8.74226 0.628831C8.35174 0.238306 7.71857 0.238306 7.32805 0.628831L0.964088 6.99279C0.573564 7.38332 0.573564 8.01648 0.964088 8.40701C1.35461 8.79753 1.98778 8.79753 2.3783 8.40701L8.03516 2.75015L13.692 8.40701C14.0825 8.79753 14.7157 8.79753 15.1062 8.40701C15.4967 8.01648 15.4967 7.38332 15.1062 6.99279L8.74226 0.628831ZM7.03516 16.3359C7.03516 16.8882 7.48287 17.3359 8.03516 17.3359C8.58744 17.3359 9.03516 16.8882 9.03516 16.3359L7.03516 16.3359ZM7.03516 1.33594L7.03516 16.3359L9.03516 16.3359L9.03516 1.33594L7.03516 1.33594Z" fill="#373F41"/>
</svg>