<svg xmlns="http://www.w3.org/2000/svg" width="26" height="26" viewBox="0 0 26 26" fill="none">
  <path d="M1.13116 24.8518C0.651593 24.3725 0.651593 23.5957 1.13116 23.1164L10.5486 13.7056L12.2856 15.4414L2.86865 24.8517C2.38889 25.3312 1.61091 25.3312 1.13116 24.8518ZM12.9929 14.7345L11.2559 12.9987L12.9929 11.2629L14.7299 12.9987L12.9929 14.7345ZM12.2856 10.5561L10.5486 12.2918L1.13327 2.88309C0.653705 2.40386 0.653705 1.62701 1.13327 1.14778C1.61302 0.668362 2.391 0.66836 2.87076 1.14778L12.2856 10.5561ZM15.4373 12.2919L13.7003 10.5561L23.1303 1.13254C23.6101 0.653117 24.388 0.653119 24.8678 1.13254C25.3474 1.61177 25.3474 2.38861 24.8678 2.86784L15.4373 12.2919ZM13.7003 15.4414L15.4373 13.7056L24.8699 23.1317C25.3495 23.6109 25.3495 24.3878 24.8699 24.867L25.2233 25.2207L24.8699 24.867C24.3902 25.3464 23.6122 25.3464 23.1324 24.867L13.7003 15.4414Z" fill="#F7FAFF" stroke="#F7FAFF"/>
</svg>