<svg xmlns="http://www.w3.org/2000/svg" width="24" height="25" viewBox="0 0 24 25" fill="none">
  <path fill-rule="evenodd" clip-rule="evenodd" d="M20.2516 6.59435C20.8374 6.00857 20.8374 5.05882 20.2516 4.47303C19.6658 3.88725 18.716 3.88725 18.1303 4.47303L12.0017 10.6016L5.87316 4.47303C5.28737 3.88725 4.33763 3.88725 3.75184 4.47303C3.16605 5.05882 3.16605 6.00857 3.75184 6.59435L9.88039 12.7229L3.75184 18.8514C3.16605 19.4372 3.16605 20.387 3.75184 20.9728C4.33763 21.5586 5.28737 21.5586 5.87316 20.9728L12.0017 14.8442L18.1303 20.9728C18.716 21.5586 19.6658 21.5586 20.2516 20.9728C20.8374 20.387 20.8374 19.4372 20.2516 18.8514L14.123 12.7229L20.2516 6.59435Z" fill="#747B7F"/>
</svg>