<!-- <svg xmlns="https://www.w3.org/2000/svg" width="10" height="10" viewBox="0 0 12 12">
    <path fill="#666" fill-rule="nonzero" d="M2.28 3.22a.75.75 0 0 0-1.06 1.06l4.25 4.25a.75.75 0 0 0 1.06 0l4.25-4.25a.75.75 0 0 0-1.06-1.06L6 6.94 2.28 3.22z">
    </path>
</svg> -->
<svg xmlns="http://www.w3.org/2000/svg" width="25" height="24" viewBox="0 0 25 24" fill="none">
<path d="M8.38232 11.2674L11.6198 14.5049C12.1073 14.9924 12.8948 14.9924 13.3823 14.5049L16.6198 11.2674C17.4073 10.4799 16.8448 9.12988 15.7323 9.12988H9.25731C8.14482 9.12988 7.59482 10.4799 8.38232 11.2674Z" fill="#8E8E8E"/>
</svg>