<svg width="21" height="21" viewBox="0 0 21 21" fill="none" xmlns="http://www.w3.org/2000/svg">
<g id="edit_testing">
<path id="vector" fill-rule="evenodd" clip-rule="evenodd" d="M19.5699 4.48477L17.2303 2.27807L16.1656 3.33405L18.5573 5.71904C18.8639 5.3967 19.2138 5.02153 19.5536 4.64135C19.5849 4.59867 19.6057 4.56478 19.6193 4.53969C19.6071 4.5246 19.5909 4.50625 19.5699 4.48477ZM20.5197 5.43619C21.1144 4.66848 20.9234 4.06902 20.4426 3.58959L18.0137 1.29859C17.6015 0.865315 16.8773 0.865315 16.4428 1.29859L14.393 3.33156L18.5707 7.49773C18.5706 7.49777 18.5707 7.49768 18.5707 7.49773C18.5932 7.47523 18.6217 7.44669 18.6552 7.41294C18.8182 7.24881 19.1036 6.95796 19.4426 6.60193C19.772 6.25606 20.152 5.84867 20.5197 5.43619ZM0.890625 20.9736V16.8075L13.2121 4.50925L17.3897 8.67526L5.06833 20.9736H0.890625ZM4.55125 19.7236L15.6199 8.67574L13.2125 6.27496L2.14062 17.326V19.7236H4.55125Z" fill="#373F41"/>
</g>
</svg>
