<svg xmlns="http://www.w3.org/2000/svg" width="25" height="25" viewBox="0 0 25 25" fill="none">
  <path d="M8.67715 9.10335C9.37315 10.553 10.3219 11.9116 11.5235 13.1132C12.7251 14.3148 14.0837 15.2636 15.5334 15.9596C15.658 16.0194 15.7204 16.0494 15.7993 16.0724C16.0796 16.1541 16.4239 16.0954 16.6613 15.9254C16.7281 15.8775 16.7853 15.8204 16.8996 15.7061C17.2492 15.3564 17.424 15.1816 17.5998 15.0674C18.2627 14.6364 19.1173 14.6364 19.7802 15.0674C19.9559 15.1816 20.1307 15.3564 20.4803 15.7061L20.6752 15.9009C21.2067 16.4324 21.4724 16.6981 21.6167 16.9835C21.9038 17.551 21.9038 18.2213 21.6167 18.7889C21.4724 19.0742 21.2067 19.34 20.6752 19.8714L20.5176 20.029C19.988 20.5587 19.7231 20.8235 19.3631 21.0257C18.9636 21.2501 18.3431 21.4115 17.8849 21.4101C17.4719 21.4089 17.1897 21.3288 16.6253 21.1686C13.5919 20.3076 10.7295 18.6832 8.34154 16.2952C5.95355 13.9072 4.32908 11.0448 3.46811 8.01144C3.3079 7.44699 3.2278 7.16477 3.22657 6.75182C3.22521 6.2936 3.38657 5.67311 3.61099 5.2736C3.81324 4.91357 4.07805 4.64876 4.60767 4.11913L4.76531 3.9615C5.29675 3.43006 5.56247 3.16433 5.84785 3.01999C6.41541 2.73292 7.08568 2.73292 7.65324 3.01999C7.93862 3.16433 8.20434 3.43006 8.73578 3.9615L8.93065 4.15637C9.28026 4.50597 9.45506 4.68078 9.56935 4.85655C10.0003 5.51945 10.0003 6.37403 9.56935 7.03692C9.45506 7.21269 9.28026 7.3875 8.93065 7.7371C8.81634 7.85142 8.75918 7.90857 8.71134 7.97538C8.54133 8.21281 8.48263 8.55707 8.56435 8.83743C8.58735 8.91632 8.61728 8.97866 8.67715 9.10335Z" stroke="#8E8E8E" stroke-width="1.5" stroke-linecap="round"/>
</svg>