<svg xmlns="http://www.w3.org/2000/svg" width="21" height="18" viewBox="0 0 21 18" fill="none">
  <path d="M1.04688 3.6C1.04688 2.61 1.99187 1.8 3.14687 1.8H17.8469C18.4038 1.8 18.938 1.98964 19.3318 2.32721C19.7256 2.66477 19.9469 3.12261 19.9469 3.6V16.2C19.9469 16.6774 19.7256 17.1352 19.3318 17.4728C18.938 17.8104 18.4038 18 17.8469 18H3.14687C2.58992 18 2.05578 17.8104 1.66195 17.4728C1.26812 17.1352 1.04688 16.6774 1.04688 16.2V3.6ZM3.14687 5.4V16.2H17.8469V5.4H3.14687ZM5.24687 0H7.34687V1.8H5.24687V0ZM13.6469 0H15.7469V1.8H13.6469V0ZM5.24687 8.1H7.34687V9.9H5.24687V8.1ZM5.24687 11.7H7.34687V13.5H5.24687V11.7ZM9.44687 8.1H11.5469V9.9H9.44687V8.1ZM9.44687 11.7H11.5469V13.5H9.44687V11.7ZM13.6469 8.1H15.7469V9.9H13.6469V8.1ZM13.6469 11.7H15.7469V13.5H13.6469V11.7Z" fill="#8E8E8E"/>
</svg>