<svg xmlns="http://www.w3.org/2000/svg" width="25" height="25" viewBox="0 0 25 25" fill="none">
  <path d="M2.14844 7.25L10.3134 12.9654C10.9745 13.4283 11.3051 13.6597 11.6647 13.7493C11.9823 13.8285 12.3145 13.8285 12.6322 13.7493C12.9918 13.6597 13.3223 13.4283 13.9835 12.9654L22.1484 7.25M6.94844 20.25H17.3484C19.0286 20.25 19.8687 20.25 20.5104 19.923C21.0749 19.6354 21.5338 19.1765 21.8215 18.612C22.1484 17.9702 22.1484 17.1302 22.1484 15.45V9.05C22.1484 7.36984 22.1484 6.52976 21.8215 5.88803C21.5338 5.32354 21.0749 4.8646 20.5104 4.57698C19.8687 4.25 19.0286 4.25 17.3484 4.25H6.94844C5.26828 4.25 4.4282 4.25 3.78647 4.57698C3.22198 4.8646 2.76304 5.32354 2.47542 5.88803C2.14844 6.52976 2.14844 7.36984 2.14844 9.05V15.45C2.14844 17.1302 2.14844 17.9702 2.47542 18.612C2.76304 19.1765 3.22198 19.6354 3.78647 19.923C4.4282 20.25 5.26828 20.25 6.94844 20.25Z" stroke="#8E8E8E" stroke-width="1.5" stroke-linecap="round" stroke-linejoin="round"/>
</svg>