<svg xmlns="http://www.w3.org/2000/svg" width="39" height="24" viewBox="0 0 39 24" fill="none">
  <path d="M15.0694 1.09597L18.1537 0.760742V14.5797L15.0694 14.9149V1.09597ZM0.792969 2.77623L11.1277 1.91737V12.6046L0.792969 13.4044V2.77623ZM8.13547 4.3572L3.78521 5.21605V11.0106L8.13547 10.2108V4.3572ZM10.479 14.6071L13.0799 14.3024L13.0317 15.2746C13.0317 19.1185 6.60635 22.8774 3.17818 23.4183L2.02731 21.0245C5.70724 20.5397 10.479 16.9549 10.479 14.6071ZM10.4308 15.6659L13.0317 15.2746C13.0317 17.6224 13.4511 19.3572 18.0315 20.0017L17.4046 22.5957C12.1567 21.767 10.4308 19.5098 10.4308 15.6659Z" fill="#151515"/>
  <path d="M22.166 10.8597H23.9844C28.1634 10.5763 30.8607 9.49737 33.8588 8.85001L34.158 11.2208C31.58 11.8495 27.8037 13.0176 23.9844 13.5009H22.166V10.8597ZM22.166 2.78067L32.4087 1.30035V3.71716L25.2043 5.19748V11.8495H22.166V2.78067ZM24.2606 6.80869L31.7872 5.32837V7.69915L24.2606 9.17946V6.80869ZM35.6311 0.864481L38.7154 0.581055V13.5772L35.6311 13.8606V0.864481ZM22.2121 15.6142L38.7154 14.5324V22.082L22.2121 23.1638V15.6142ZM35.7002 16.929L25.2043 17.7275V20.4665L35.7002 19.6681V16.929Z" fill="#151515"/>
</svg>