<svg width="222" height="101" viewBox="0 0 222 101" fill="none" xmlns="http://www.w3.org/2000/svg">
<g opacity="0.8">
<path d="M0 27.1589C0 23.1389 2.98314 19.7433 6.96961 19.2255L44.9696 14.2901C49.7568 13.6683 54 17.396 54 22.2234V54.4582C54 58.4781 51.0169 61.8738 47.0304 62.3915L9.03038 67.327C4.24318 67.9487 0 64.221 0 59.3936V27.1589Z" fill="#FF60FA"/>
<path d="M17.8048 5.47707C9.17989 7.20334 7.00683 15.2475 5.96498 21.3598L18.5604 20.134C11.7792 17.3246 14.704 9.50179 17.8048 5.47707Z" fill="#FF60FA"/>
</g>
<g opacity="0.7">
<path d="M82 73.8411C82 77.8611 79.0169 81.2567 75.0304 81.7745L37.0304 86.7099C32.2432 87.3317 28 83.604 28 78.7766L28 46.5418C28 42.5219 30.9831 39.1262 34.9696 38.6085L72.9696 33.673C77.7568 33.0513 82 36.779 82 41.6064L82 73.8411Z" fill="#2030FF"/>
<path d="M64.1952 95.5229C72.8201 93.7967 74.9932 85.7525 76.035 79.6402L63.4396 80.866C70.2208 83.6754 67.296 91.4982 64.1952 95.5229Z" fill="#2030FF"/>
</g>
<rect x="59.5869" y="45.5742" width="3.28" height="12.0439" fill="black"/>
<rect x="9.84033" y="29.1523" width="3.28" height="12.0439" fill="black"/>
<rect x="69.9731" y="43.3828" width="3.28" height="12.0439" fill="black"/>
<rect x="20.2266" y="26.9609" width="3.28" height="12.0439" fill="black"/>
<path d="M121.4 7.4375H114.064V9.10156H120.767V11.3984H114.064V13.1562C116.157 13.1484 117.837 13.1133 119.103 13.0508C120.376 12.9883 121.642 12.8516 122.9 12.6406L123.204 14.9609C121.79 15.2031 120.36 15.3594 118.915 15.4297C117.47 15.4922 115.462 15.5234 112.892 15.5234H111.064V5.04688H121.4V7.4375ZM127.751 16.5078H124.751V3.85156H127.751V16.5078ZM127.751 24.9219H113.454V17.375H127.751V24.9219ZM116.407 22.5312H124.821V19.6953H116.407V22.5312ZM140.408 4.13281C142.041 4.13281 143.436 4.27344 144.592 4.55469C145.748 4.83594 146.631 5.25 147.241 5.79688C147.85 6.33594 148.158 6.99219 148.166 7.76562C148.158 8.54688 147.85 9.21094 147.241 9.75781C146.631 10.3047 145.748 10.7188 144.592 11C143.436 11.2812 142.041 11.4219 140.408 11.4219C138.768 11.4219 137.366 11.2812 136.201 11C135.037 10.7188 134.151 10.3047 133.541 9.75781C132.932 9.21094 132.627 8.54688 132.627 7.76562C132.627 6.99219 132.932 6.33594 133.541 5.79688C134.151 5.25 135.037 4.83594 136.201 4.55469C137.366 4.27344 138.768 4.13281 140.408 4.13281ZM140.408 6.3125C138.854 6.3125 137.686 6.4375 136.905 6.6875C136.131 6.92969 135.752 7.28906 135.768 7.76562C135.76 8.28125 136.131 8.65234 136.881 8.87891C137.631 9.10547 138.807 9.21875 140.408 9.21875C142.018 9.21875 143.198 9.10547 143.948 8.87891C144.698 8.65234 145.073 8.28125 145.073 7.76562C145.073 7.28906 144.686 6.92969 143.912 6.6875C143.139 6.4375 141.971 6.3125 140.408 6.3125ZM150.135 14.7969H130.682V12.4297H150.135V14.7969ZM147.768 21.4766H135.885V22.7656H148.33V25.0156H132.955V19.3906H144.815V18.2188H132.932V16.0391H147.768V21.4766ZM167.926 15.8281H157.684V5.58594H167.926V15.8281ZM160.637 13.4844H164.973V7.97656H160.637V13.4844ZM173.973 9.96875H176.856V12.4297H173.973V19.3906H170.973V3.82812H173.973V9.96875ZM174.747 24.7812H160.145V17.8672H163.122V22.3906H174.747V24.7812ZM197.693 14.3516H194.67V25.1094H191.67V3.82812H194.67V11.9141H197.693V14.3516ZM181.498 17.4336C184.521 17.3789 187.435 17.0703 190.24 16.5078L190.545 18.9922C188.888 19.3281 187.217 19.5664 185.529 19.707C183.849 19.8398 182.131 19.9062 180.373 19.9062H178.521V5.86719H181.498V17.4336ZM215.46 11.75H218.6V14.1875H215.46V25.2031H212.46V3.82812H215.46V11.75ZM209.483 8.21094H202.452V17.5625C204.132 17.5469 205.632 17.4883 206.952 17.3867C208.272 17.2852 209.6 17.1172 210.936 16.8828L211.265 19.3906C209.835 19.6328 208.425 19.8008 207.034 19.8945C205.651 19.9805 204.061 20.0234 202.265 20.0234H201.28H199.475V5.79688H209.483V8.21094Z" fill="#151515"/>
<path d="M150.78 38.4434L159.482 37.5039V76.2304L150.78 77.1699V38.4434ZM110.5 43.1521L139.659 40.7453V70.6953L110.5 72.9367V43.1521ZM131.216 47.5827L118.942 49.9895V66.2283L131.216 63.9869V47.5827ZM137.828 76.3071L145.167 75.4532L145.031 78.1777C145.031 88.9499 126.902 99.484 117.23 101L113.983 94.2915C124.365 92.9328 137.828 82.8865 137.828 76.3071ZM137.693 79.2743L145.031 78.1777C145.031 84.7571 146.214 89.619 159.138 91.4251L157.369 98.6944C142.562 96.3723 137.693 90.0465 137.693 79.2743Z" fill="black"/>
<path d="M170.807 65.8051H175.938C187.728 65.0108 195.339 61.9872 203.798 60.173L204.642 66.8169C197.368 68.5788 186.714 71.8523 175.938 73.2069H170.807V65.8051ZM170.807 43.1642L199.706 39.0158V45.7887L179.379 49.9371V68.5788H170.807V43.1642ZM176.717 54.4524L197.953 50.3039V56.9478L176.717 61.0963V54.4524ZM208.798 37.7943L217.5 37V73.4205L208.798 74.2148V37.7943ZM170.937 79.1291L217.5 76.0974V97.2547L170.937 100.286V79.1291ZM208.993 82.8138L179.379 85.0513V92.7273L208.993 90.4898V82.8138Z" fill="black"/>
</svg>