<svg xmlns="http://www.w3.org/2000/svg" width="18" height="18" viewBox="0 0 18 18" fill="none">
  <path d="M11.6248 4.12648L13.7461 6.2478M2.25 15.7513L2.28559 15.5022C2.41152 14.6206 2.47449 14.1799 2.61772 13.7684C2.74481 13.4032 2.91843 13.056 3.13429 12.7352C3.37756 12.3737 3.69239 12.0589 4.32206 11.4292L13.0581 2.69325C13.6438 2.10746 14.5936 2.10746 15.1794 2.69325C15.7652 3.27903 15.7652 4.22878 15.1794 4.81457L6.28308 13.7109C5.71185 14.2821 5.42623 14.5677 5.1009 14.7948C4.81213 14.9965 4.50069 15.1635 4.17298 15.2925C3.80378 15.4378 3.40782 15.5177 2.61595 15.6775L2.25 15.7513Z" stroke="white" stroke-width="1.5" stroke-linecap="round" stroke-linejoin="round"/>
</svg>