<svg xmlns="http://www.w3.org/2000/svg" width="36" height="36" viewBox="0 0 36 36" fill="none">
  <path d="M17.9873 34.7735C17.3094 34.7738 16.7601 34.2245 16.7603 33.5465L16.7649 20.2329L19.2205 20.232L19.2159 33.5449C19.2157 34.2232 18.6656 34.7733 17.9873 34.7735ZM19.2209 19.232L16.7653 19.2329L16.7661 16.7773L19.2217 16.7764L19.2209 19.232ZM15.7661 16.7776L15.7653 19.2332L2.45465 19.2379C1.77668 19.2381 1.22736 18.6888 1.2276 18.0108C1.22784 17.3326 1.77795 16.7824 2.45619 16.7822L15.7661 16.7776ZM19.2221 15.7764L16.7665 15.7773L16.7711 2.44577C16.7713 1.76753 17.3214 1.21741 17.9997 1.21718C18.6776 1.21694 19.227 1.76625 19.2267 2.44422L19.2221 15.7764ZM20.2209 19.2317L20.2217 16.7761L33.5569 16.7714C34.2349 16.7712 34.7842 17.3205 34.784 17.9985L35.284 17.9987L34.784 17.9985C34.7837 18.6767 34.2336 19.2268 33.5554 19.2271L20.2209 19.2317Z" fill="#F7FAFF" stroke="#F7FAFF"/>
</svg>