<svg xmlns="http://www.w3.org/2000/svg" width="20" height="20" viewBox="0 0 20 20" fill="none">
  <path d="M16.8571 6.25H13.4286V3.75C13.4286 3.41848 13.3082 3.10054 13.0938 2.86612C12.8795 2.6317 12.5888 2.5 12.2857 2.5H7.71429C7.41118 2.5 7.12049 2.6317 6.90616 2.86612C6.69184 3.10054 6.57143 3.41848 6.57143 3.75V6.25H3.14286C2.83975 6.25 2.54906 6.3817 2.33474 6.61612C2.12041 6.85054 2 7.16848 2 7.5V16.25C2 16.5815 2.12041 16.8995 2.33474 17.1339C2.54906 17.3683 2.83975 17.5 3.14286 17.5H16.8571C17.1602 17.5 17.4509 17.3683 17.6653 17.1339C17.8796 16.8995 18 16.5815 18 16.25V7.5C18 7.16848 17.8796 6.85054 17.6653 6.61612C17.4509 6.3817 17.1602 6.25 16.8571 6.25ZM7.71429 3.75H12.2857V6.25H7.71429V3.75Z" fill="#F7FAFF"/>
</svg>