<svg xmlns="http://www.w3.org/2000/svg" width="24" height="25" viewBox="0 0 24 25" fill="none">
  <path d="M10.999 2.67383C9.34212 2.67383 7.99912 4.01383 7.99902 5.67383V6.73633H6.99902C6.08452 6.69953 4.68092 7.29693 4.15522 8.76763L2.99902 8.73633C2.44672 8.73633 1.99892 9.18303 1.99902 9.73633C1.99902 10.2896 2.44672 10.7368 2.99902 10.7368H3.99902V11.7368H2.99902C2.44672 11.7368 1.99892 12.1828 1.99902 12.7368C1.99902 13.2898 2.44672 13.7358 2.99902 13.7368H3.99902V14.7368H2.99902C2.44672 14.7368 1.99892 15.1828 1.99902 15.7368C1.99902 16.2898 2.44672 16.7368 2.99902 16.7368H3.99902V17.7368H2.99902C2.44672 17.7368 1.99892 18.1828 1.99902 18.7368C1.99902 19.2898 2.44672 19.7368 2.99902 19.7368H3.99902C3.99902 21.3928 5.34212 22.7368 6.99902 22.7368H13.999C15.6559 22.7368 16.999 21.3928 16.999 19.7368V18.7368L17.999 18.7048C19.6559 18.7048 20.9989 17.3648 20.999 15.7048V5.67383C20.999 4.01393 19.6558 2.67363 17.999 2.67383H10.999ZM17.999 4.67383C18.5513 4.67383 18.9991 5.12053 18.999 5.67383V15.6738C18.999 16.2268 18.5513 16.6738 17.999 16.6738L16.999 16.7048V9.73633C16.999 8.07943 15.6559 6.73633 13.999 6.73633H9.99902V5.70513C9.99902 5.15183 10.4467 4.70503 10.999 4.70513L17.999 4.67383Z" fill="white"/>
</svg>