<svg xmlns="http://www.w3.org/2000/svg" width="21" height="21" viewBox="0 0 21 21" fill="none">
  <path fill-rule="evenodd" clip-rule="evenodd" d="M2.41504 9.34844C2.41504 8.13341 3.40001 7.14844 4.61504 7.14844H15.815C17.0301 7.14844 18.015 8.13341 18.015 9.34844V15.7484C18.015 16.9635 17.0301 17.9484 15.815 17.9484H4.61504C3.40001 17.9484 2.41504 16.9635 2.41504 15.7484V9.34844ZM4.61504 8.34844C4.06275 8.34844 3.61504 8.79615 3.61504 9.34844V15.7484C3.61504 16.3007 4.06275 16.7484 4.61504 16.7484H15.815C16.3673 16.7484 16.815 16.3007 16.815 15.7484V9.34844C16.815 8.79615 16.3673 8.34844 15.815 8.34844H4.61504Z" fill="#8E8E8E"/>
  <path fill-rule="evenodd" clip-rule="evenodd" d="M6.41602 6.14922C6.41602 4.93419 7.40099 3.94922 8.61602 3.94922H11.816C13.031 3.94922 14.016 4.93419 14.016 6.14922V8.34922H6.41602V6.14922ZM8.61602 5.14922C8.06373 5.14922 7.61602 5.59693 7.61602 6.14922V7.14922H12.816V6.14922C12.816 5.59693 12.3683 5.14922 11.816 5.14922H8.61602Z" fill="#8E8E8E"/>
  <path fill-rule="evenodd" clip-rule="evenodd" d="M17.4146 12.3484H3.01465V11.1484H17.4146V12.3484Z" fill="#8E8E8E"/>
</svg>