<svg xmlns="http://www.w3.org/2000/svg" width="21" height="21" viewBox="0 0 21 21" fill="none">
  <path fill-rule="evenodd" clip-rule="evenodd" d="M9.13128 2.76527C7.44291 2.76527 5.82369 3.43598 4.62983 4.62983C3.43598 5.82369 2.76527 7.44291 2.76527 9.13128C2.76527 10.8197 3.43598 12.4389 4.62983 13.6327C5.82369 14.8266 7.44291 15.4973 9.13128 15.4973C10.8197 15.4973 12.4389 14.8266 13.6327 13.6327C14.8266 12.4389 15.4973 10.8197 15.4973 9.13128C15.4973 7.44291 14.8266 5.82369 13.6327 4.62983C12.4389 3.43598 10.8197 2.76527 9.13128 2.76527ZM0.855469 9.13128C0.855469 6.9364 1.72738 4.83141 3.2794 3.2794C4.83141 1.72738 6.9364 0.855469 9.13128 0.855469C11.3262 0.855469 13.4312 1.72738 14.9832 3.2794C16.5352 4.83141 17.4071 6.9364 17.4071 9.13128C17.4071 11.3262 16.5352 13.4312 14.9832 14.9832C13.4312 16.5352 11.3262 17.4071 9.13128 17.4071C6.9364 17.4071 4.83141 16.5352 3.2794 14.9832C1.72738 13.4312 0.855469 11.3262 0.855469 9.13128Z" fill="#8E8E8E"/>
  <path fill-rule="evenodd" clip-rule="evenodd" d="M14.1855 14.1855C14.3646 14.0067 14.6073 13.9062 14.8603 13.9062C15.1134 13.9062 15.3561 14.0067 15.5351 14.1855L20.6279 19.2783C20.7217 19.3657 20.797 19.4712 20.8492 19.5883C20.9014 19.7054 20.9294 19.8319 20.9317 19.9601C20.934 20.0883 20.9104 20.2157 20.8623 20.3346C20.8143 20.4535 20.7428 20.5615 20.6522 20.6522C20.5615 20.7428 20.4535 20.8143 20.3346 20.8623C20.2157 20.9104 20.0883 20.934 19.9601 20.9317C19.8319 20.9294 19.7054 20.9014 19.5883 20.8492C19.4712 20.797 19.3657 20.7217 19.2783 20.6279L14.1855 15.5351C14.0067 15.3561 13.9062 15.1134 13.9062 14.8603C13.9062 14.6073 14.0067 14.3646 14.1855 14.1855Z" fill="#8E8E8E"/>
</svg>