<svg width="21" height="21" viewBox="0 0 21 21" fill="none" xmlns="http://www.w3.org/2000/svg">
<g id="trashcan_testing">
<path id="vector" d="M18.6476 4.62764H3.13482C2.9478 4.62764 2.76845 4.70193 2.63621 4.83417C2.50398 4.96641 2.42969 5.14576 2.42969 5.33277C2.42969 5.51978 2.50398 5.69913 2.63621 5.83137C2.76845 5.96361 2.9478 6.0379 3.13482 6.0379H3.83994V18.7302C3.83994 19.1042 3.98852 19.4629 4.253 19.7274C4.51747 19.9919 4.87618 20.1405 5.2502 20.1405H16.5323C16.9063 20.1405 17.265 19.9919 17.5295 19.7274C17.7939 19.4629 17.9425 19.1042 17.9425 18.7302V6.0379H18.6476C18.8346 6.0379 19.014 5.96361 19.1462 5.83137C19.2785 5.69913 19.3528 5.51978 19.3528 5.33277C19.3528 5.14576 19.2785 4.96641 19.1462 4.83417C19.014 4.70193 18.8346 4.62764 18.6476 4.62764ZM16.5323 18.7302H5.2502V6.0379H16.5323V18.7302ZM6.66046 2.51226C6.66046 2.32525 6.73475 2.14589 6.86698 2.01366C6.99922 1.88142 7.17857 1.80713 7.36558 1.80713H14.4169C14.6039 1.80713 14.7832 1.88142 14.9155 2.01366C15.0477 2.14589 15.122 2.32525 15.122 2.51226C15.122 2.69927 15.0477 2.87862 14.9155 3.01086C14.7832 3.1431 14.6039 3.21739 14.4169 3.21739H7.36558C7.17857 3.21739 6.99922 3.1431 6.86698 3.01086C6.73475 2.87862 6.66046 2.69927 6.66046 2.51226Z" fill="#373F41"/>
</g>
</svg>
